<svg width="29" height="28" viewBox="0 0 29 28" fill="none" xmlns="http://www.w3.org/2000/svg">
<g clip-path="url(#clip0_3_14)">
<path d="M11.69 11.1222C14.2674 11.1222 16.3567 9.03281 16.3567 6.45548C16.3567 3.87816 14.2674 1.78882 11.69 1.78882C9.11271 1.78882 7.02338 3.87816 7.02338 6.45548C7.02338 9.03281 9.11271 11.1222 11.69 11.1222Z" fill="white"/>
<path d="M13.0667 24.7488C12.8097 24.4946 12.6419 24.1639 12.5886 23.8063C12.5354 23.4488 12.5994 23.0836 12.7711 22.7655L13.1833 21.9877L12.3356 21.731C11.9899 21.6228 11.6889 21.4048 11.4783 21.11C11.2678 20.8152 11.1591 20.4598 11.1689 20.0977V18.5032C11.1683 18.1427 11.2836 17.7915 11.4979 17.5016C11.7122 17.2117 12.0141 16.9984 12.3589 16.8932L13.2067 16.6366L12.8022 15.8588C12.6355 15.545 12.5721 15.1866 12.621 14.8347C12.6699 14.4828 12.8286 14.1553 13.0745 13.8988C12.4761 13.8204 11.8735 13.7788 11.27 13.7744C9.4876 13.7324 7.71788 14.0843 6.08709 14.8049C4.4563 15.5255 3.00461 16.5971 1.83557 17.9432V23.971C1.83557 24.1773 1.91752 24.3751 2.06338 24.521C2.20924 24.6669 2.40707 24.7488 2.61335 24.7488H13.0667Z" fill="white"/>
<path d="M26.4912 18.2467L24.9356 17.7801C24.8278 17.3959 24.6765 17.0254 24.4845 16.6756L25.2623 15.229C25.2923 15.1753 25.3033 15.113 25.2934 15.0522C25.2835 14.9915 25.2534 14.9359 25.2078 14.8945L24.08 13.759C24.0366 13.7167 23.9812 13.6888 23.9214 13.6791C23.8616 13.6693 23.8002 13.6782 23.7456 13.7045L22.3067 14.4823C21.9525 14.2899 21.5799 14.1336 21.1945 14.0156L20.72 12.4601C20.6992 12.4027 20.661 12.3532 20.6109 12.3184C20.5608 12.2836 20.5011 12.2652 20.44 12.2656H18.8223C18.7616 12.2673 18.703 12.2876 18.6543 12.3238C18.6056 12.36 18.5692 12.4103 18.55 12.4679L18.0834 14.0234C17.6905 14.1377 17.3121 14.2969 16.9556 14.4979L15.5478 13.7201C15.4931 13.691 15.4306 13.6798 15.3692 13.6882C15.3078 13.6966 15.2505 13.7241 15.2056 13.7667L14.0623 14.8867C14.0172 14.9301 13.9876 14.987 13.9778 15.0487C13.9679 15.1105 13.9785 15.1738 14.0078 15.229L14.7856 16.6445C14.5772 16.9958 14.4077 17.3688 14.28 17.7567L12.7245 18.2312C12.6656 18.2482 12.614 18.284 12.5775 18.3332C12.541 18.3824 12.5216 18.4422 12.5223 18.5034V20.0979C12.5216 20.1591 12.541 20.2189 12.5775 20.2681C12.614 20.3172 12.6656 20.3531 12.7245 20.3701L14.28 20.8445C14.3966 21.2255 14.5531 21.593 14.7467 21.9412L13.9689 23.419C13.9396 23.4742 13.929 23.5374 13.9389 23.5992C13.9487 23.6609 13.9784 23.7178 14.0234 23.7612L15.1823 24.889C15.2272 24.9316 15.2844 24.9591 15.3459 24.9675C15.4073 24.9759 15.4698 24.9647 15.5245 24.9356L16.9789 24.1579C17.3251 24.344 17.6901 24.4926 18.0678 24.6012L18.5345 26.1956C18.5541 26.2544 18.5916 26.3056 18.6419 26.3419C18.6921 26.3782 18.7525 26.3978 18.8145 26.3979H20.4089C20.4696 26.3962 20.5282 26.3758 20.5769 26.3397C20.6256 26.3035 20.662 26.2532 20.6812 26.1956L21.1478 24.6012C21.521 24.494 21.8811 24.3453 22.2212 24.1579L23.6912 24.9356C23.7459 24.9647 23.8084 24.9759 23.8698 24.9675C23.9312 24.9591 23.9884 24.9316 24.0334 24.889L25.1689 23.7612C25.2116 23.7162 25.2391 23.659 25.2475 23.5976C25.2558 23.5362 25.2447 23.4737 25.2156 23.419L24.4378 21.9567C24.6239 21.616 24.7725 21.2561 24.8812 20.8834L26.4367 20.409C26.4951 20.3902 26.5465 20.3541 26.584 20.3055C26.6215 20.2569 26.6434 20.198 26.6467 20.1367V18.5267C26.6486 18.4704 26.6351 18.4145 26.6077 18.3652C26.5803 18.3159 26.54 18.2749 26.4912 18.2467ZM19.6234 21.9179C19.1093 21.9194 18.6062 21.7683 18.178 21.4838C17.7498 21.1993 17.4156 20.7941 17.2178 20.3196C17.02 19.8451 16.9674 19.3225 17.0668 18.8181C17.1661 18.3136 17.4129 17.85 17.7759 17.4859C18.1389 17.1219 18.6018 16.8737 19.1059 16.7728C19.6101 16.6719 20.1328 16.7229 20.6079 16.9193C21.0831 17.1157 21.4892 17.4487 21.775 17.876C22.0608 18.3034 22.2134 18.806 22.2134 19.3201C22.2134 20.0077 21.9408 20.6673 21.4553 21.1542C20.9698 21.6412 20.311 21.9158 19.6234 21.9179Z" fill="white"/>
</g>
<defs>
<clipPath id="clip0_3_14">
<rect width="28" height="28" fill="white" transform="translate(0.280029)"/>
</clipPath>
</defs>
</svg>
