<svg width="15" height="15" viewBox="0 0 15 15" fill="none" xmlns="http://www.w3.org/2000/svg">
<path d="M0.487497 3.25008C0.65079 2.45011 1.08546 1.73113 1.71794 1.21482C2.35042 0.698511 3.14187 0.416581 3.95833 0.416748H11.0417C11.8581 0.416581 12.6496 0.698511 13.2821 1.21482C13.9145 1.73113 14.3492 2.45011 14.5125 3.25008H0.487497ZM0.416664 4.66675V11.0417C0.416664 11.9811 0.789803 12.8819 1.45399 13.5461C2.11819 14.2103 3.01902 14.5834 3.95833 14.5834H11.0417C11.981 14.5834 12.8818 14.2103 13.546 13.5461C14.2102 12.8819 14.5833 11.9811 14.5833 11.0417V4.66675H0.416664ZM3.25 6.79175C3.25 6.60389 3.32463 6.42372 3.45746 6.29088C3.5903 6.15804 3.77047 6.08342 3.95833 6.08342C4.14619 6.08342 4.32636 6.15804 4.4592 6.29088C4.59204 6.42372 4.66666 6.60389 4.66666 6.79175C4.66666 6.97961 4.59204 7.15978 4.4592 7.29262C4.32636 7.42545 4.14619 7.50008 3.95833 7.50008C3.77047 7.50008 3.5903 7.42545 3.45746 7.29262C3.32463 7.15978 3.25 6.97961 3.25 6.79175ZM3.25 9.62508C3.25 9.43722 3.32463 9.25705 3.45746 9.12422C3.5903 8.99138 3.77047 8.91675 3.95833 8.91675C4.14619 8.91675 4.32636 8.99138 4.4592 9.12422C4.59204 9.25705 4.66666 9.43722 4.66666 9.62508C4.66666 9.81294 4.59204 9.99311 4.4592 10.1259C4.32636 10.2588 4.14619 10.3334 3.95833 10.3334C3.77047 10.3334 3.5903 10.2588 3.45746 10.1259C3.32463 9.99311 3.25 9.81294 3.25 9.62508ZM6.79166 6.08342C6.97953 6.08342 7.15969 6.15804 7.29253 6.29088C7.42537 6.42372 7.5 6.60389 7.5 6.79175C7.5 6.97961 7.42537 7.15978 7.29253 7.29262C7.15969 7.42545 6.97953 7.50008 6.79166 7.50008C6.6038 7.50008 6.42364 7.42545 6.2908 7.29262C6.15796 7.15978 6.08333 6.97961 6.08333 6.79175C6.08333 6.60389 6.15796 6.42372 6.2908 6.29088C6.42364 6.15804 6.6038 6.08342 6.79166 6.08342ZM6.08333 9.62508C6.08333 9.43722 6.15796 9.25705 6.2908 9.12422C6.42364 8.99138 6.6038 8.91675 6.79166 8.91675C6.97953 8.91675 7.15969 8.99138 7.29253 9.12422C7.42537 9.25705 7.5 9.43722 7.5 9.62508C7.5 9.81294 7.42537 9.99311 7.29253 10.1259C7.15969 10.2588 6.97953 10.3334 6.79166 10.3334C6.6038 10.3334 6.42364 10.2588 6.2908 10.1259C6.15796 9.99311 6.08333 9.81294 6.08333 9.62508ZM9.625 6.08342C9.81286 6.08342 9.99303 6.15804 10.1259 6.29088C10.2587 6.42372 10.3333 6.60389 10.3333 6.79175C10.3333 6.97961 10.2587 7.15978 10.1259 7.29262C9.99303 7.42545 9.81286 7.50008 9.625 7.50008C9.43714 7.50008 9.25697 7.42545 9.12413 7.29262C8.99129 7.15978 8.91666 6.97961 8.91666 6.79175C8.91666 6.60389 8.99129 6.42372 9.12413 6.29088C9.25697 6.15804 9.43714 6.08342 9.625 6.08342Z" fill="#505A74"/>
</svg>
