<svg width="108" height="22" viewBox="0 0 108 22" fill="none" xmlns="http://www.w3.org/2000/svg">
<path fill-rule="evenodd" clip-rule="evenodd" d="M28.4754 8.35926C28.8812 9.20602 29.0966 10.1314 29.1064 11.0704V11.4225C29.0324 13.1747 28.2664 14.8259 26.9765 16.0141C25.6866 17.2023 23.9781 17.8303 22.2257 17.7603H22V16.2954C22.0948 16.2947 22.1896 16.294 22.2844 16.2932C22.9702 16.327 23.6557 16.2224 24.3003 15.9857C24.9448 15.7491 25.5351 15.3851 26.0361 14.9156C26.5371 14.4461 26.9385 13.8806 27.2164 13.2528C27.4944 12.6249 27.6432 11.9476 27.654 11.2611C27.6761 10.48 27.5126 9.70477 27.1768 8.99917C26.841 8.29357 26.3426 7.67773 25.7225 7.20226C25.1024 6.72679 24.3783 6.40526 23.6097 6.26412C22.8411 6.12297 22.05 6.16623 21.3014 6.39034C21.1464 6.43166 20.9822 6.42104 20.8338 6.36009C20.6854 6.29915 20.5611 6.19124 20.4799 6.0529C19.7644 4.48052 18.5456 3.1912 17.0159 2.38841C15.4862 1.58563 13.7328 1.31511 12.0323 1.61955C10.3318 1.92399 8.78112 2.78605 7.62498 4.06968C6.46884 5.3533 5.77309 6.98539 5.64754 8.70834C5.642 8.90114 5.56294 9.08452 5.42656 9.22091C5.29017 9.35729 5.10679 9.43635 4.91399 9.44189C4.3852 9.43568 3.86217 9.55209 3.38592 9.78197C2.90968 10.0119 2.49317 10.349 2.1691 10.7669C1.84502 11.1847 1.62218 11.672 1.51807 12.1905C1.41395 12.709 1.43139 13.2445 1.56902 13.7552C1.77987 14.4955 2.2292 15.1456 2.84728 15.6045C3.46536 16.0635 4.21762 16.3055 4.98735 16.2932C6.36781 16.3235 7.68262 16.3146 9 16.2963V17.7603H7.3347C7.11496 17.7603 6.89488 17.7627 6.67505 17.765C4.84005 17.7846 3.0217 17.804 1.55435 16.4546C0.831549 15.7629 0.331118 14.8716 0.116861 13.8944C-0.0973958 12.9172 -0.0157707 11.8983 0.351329 10.9677C0.675217 10.1711 1.20931 9.47742 1.89661 8.96065C2.58391 8.44389 3.39862 8.12343 4.2538 8.03348C4.50355 6.10147 5.35916 4.29832 6.69776 2.88298C8.03636 1.46765 9.78907 0.512953 11.7042 0.156011C13.6193 -0.200932 15.5982 0.058243 17.3568 0.896314C19.1154 1.73439 20.5632 3.10823 21.4922 4.82054C22.415 4.6471 23.3646 4.67796 24.2743 4.91096C25.1839 5.14397 26.0314 5.57345 26.7572 6.1692C27.4831 6.76495 28.0695 7.5125 28.4754 8.35926Z" fill="white"/>
<path d="M10.2782 20.1292C10.2781 20.4002 10.3374 20.668 10.4519 20.9136C10.5663 21.1593 10.7332 21.3769 10.9407 21.5512C11.1482 21.7255 11.3913 21.8523 11.6531 21.9226C11.9148 21.993 12.1888 22.0052 12.4557 21.9583C12.7226 21.9115 12.9761 21.8068 13.1983 21.6516C13.4204 21.4964 13.6059 21.2945 13.7418 21.06C13.8776 20.8254 13.9604 20.564 13.9844 20.2941C14.0085 20.0241 13.9731 19.7522 13.8808 19.4974L16.6145 17.7412C16.8755 17.9973 17.2064 18.1706 17.5656 18.2393C17.9248 18.3081 18.2963 18.2692 18.6335 18.1276C18.9707 17.9861 19.2586 17.7481 19.461 17.4435C19.6635 17.1389 19.7715 16.7813 19.7715 16.4156C19.7715 16.0499 19.6635 15.6923 19.461 15.3878C19.2586 15.0832 18.9707 14.8452 18.6335 14.7036C18.2963 14.562 17.9248 14.5232 17.5656 14.5919C17.2064 14.6607 16.8755 14.834 16.6145 15.0901L13.8808 13.3364C14.0374 12.9063 14.0299 12.4336 13.86 12.0086C13.69 11.5836 13.3693 11.2361 12.9594 11.0326C12.5494 10.8291 12.0788 10.7837 11.6375 10.9052C11.1961 11.0268 10.8151 11.3066 10.5671 11.6914C10.3191 12.0761 10.2215 12.5387 10.2931 12.9908C10.3646 13.4429 10.6002 13.8528 10.9549 14.1422C11.3096 14.4315 11.7584 14.5801 12.2157 14.5594C12.6729 14.5388 13.1065 14.3503 13.4337 14.0302L16.1673 15.7864C16.0195 16.1946 16.0195 16.6418 16.1673 17.05L13.4337 18.8062C13.1727 18.5508 12.8422 18.378 12.4835 18.3095C12.1248 18.2409 11.7538 18.2797 11.417 18.4209C11.0802 18.5621 10.7926 18.7995 10.59 19.1033C10.3874 19.4072 10.279 19.764 10.2782 20.1292Z" fill="white"/>
<path d="M39.016 14.496C39.7413 14.496 40.2693 14.3733 40.6 14.128C40.9307 13.8827 41.096 13.536 41.096 13.088C41.096 12.8213 41.0373 12.592 40.92 12.4C40.8133 12.208 40.6533 12.0373 40.44 11.888C40.2373 11.728 39.9867 11.584 39.688 11.456C39.3893 11.3173 39.048 11.184 38.664 11.056C38.28 10.9173 37.9067 10.768 37.544 10.608C37.192 10.4373 36.8773 10.2293 36.6 9.984C36.3333 9.73867 36.1147 9.44533 35.944 9.104C35.784 8.76267 35.704 8.352 35.704 7.872C35.704 6.86933 36.0507 6.08533 36.744 5.52C37.4373 4.944 38.3813 4.656 39.576 4.656C40.2693 4.656 40.8827 4.736 41.416 4.896C41.96 5.04533 42.3867 5.21067 42.696 5.392L42.072 7.024C41.7093 6.82133 41.3093 6.66667 40.872 6.56C40.4453 6.45333 40.0027 6.4 39.544 6.4C39 6.4 38.5733 6.512 38.264 6.736C37.9653 6.96 37.816 7.27467 37.816 7.68C37.816 7.92533 37.864 8.13867 37.96 8.32C38.0667 8.49067 38.2107 8.64533 38.392 8.784C38.584 8.92267 38.8027 9.05067 39.048 9.168C39.304 9.28533 39.5813 9.39733 39.88 9.504C40.4027 9.696 40.8667 9.89333 41.272 10.096C41.688 10.288 42.0347 10.5227 42.312 10.8C42.6 11.0667 42.8187 11.3867 42.968 11.76C43.1173 12.1227 43.192 12.5653 43.192 13.088C43.192 14.0907 42.8347 14.8693 42.12 15.424C41.416 15.968 40.3813 16.24 39.016 16.24C38.5573 16.24 38.136 16.208 37.752 16.144C37.3787 16.0907 37.0427 16.0213 36.744 15.936C36.456 15.8507 36.2053 15.7653 35.992 15.68C35.7787 15.584 35.608 15.4987 35.48 15.424L36.072 13.776C36.36 13.936 36.7493 14.096 37.24 14.256C37.7307 14.416 38.3227 14.496 39.016 14.496ZM44.7766 5.424L46.7126 5.104V7.632H49.6886V9.248H46.7126V12.656C46.7126 13.328 46.8193 13.808 47.0326 14.096C47.246 14.384 47.6086 14.528 48.1206 14.528C48.4726 14.528 48.782 14.4907 49.0486 14.416C49.326 14.3413 49.5446 14.272 49.7046 14.208L50.0246 15.744C49.8006 15.84 49.5073 15.936 49.1446 16.032C48.782 16.1387 48.3553 16.192 47.8646 16.192C47.2673 16.192 46.766 16.112 46.3606 15.952C45.966 15.792 45.6513 15.5627 45.4166 15.264C45.182 14.9547 45.0166 14.5867 44.9206 14.16C44.8246 13.7227 44.7766 13.2267 44.7766 12.672V5.424ZM54.5041 14.64C55.1015 14.64 55.5548 14.608 55.8641 14.544V12.4C55.7575 12.368 55.6028 12.336 55.4001 12.304C55.1975 12.272 54.9735 12.256 54.7281 12.256C54.5148 12.256 54.2961 12.272 54.0721 12.304C53.8588 12.336 53.6615 12.3947 53.4801 12.48C53.3095 12.5653 53.1708 12.688 53.0641 12.848C52.9575 12.9973 52.9041 13.1893 52.9041 13.424C52.9041 13.8827 53.0481 14.2027 53.3361 14.384C53.6241 14.5547 54.0135 14.64 54.5041 14.64ZM54.3441 7.424C54.9841 7.424 55.5228 7.504 55.9601 7.664C56.3975 7.824 56.7441 8.048 57.0001 8.336C57.2668 8.624 57.4535 8.976 57.5601 9.392C57.6775 9.79733 57.7361 10.2453 57.7361 10.736V15.808C57.4375 15.872 56.9841 15.9467 56.3761 16.032C55.7788 16.128 55.1015 16.176 54.3441 16.176C53.8428 16.176 53.3841 16.128 52.9681 16.032C52.5521 15.936 52.1948 15.7813 51.8961 15.568C51.6081 15.3547 51.3788 15.0773 51.2081 14.736C51.0481 14.3947 50.9681 13.9733 50.9681 13.472C50.9681 12.992 51.0588 12.5867 51.2401 12.256C51.4321 11.9253 51.6881 11.6587 52.0081 11.456C52.3281 11.2427 52.6961 11.0933 53.1121 11.008C53.5388 10.912 53.9815 10.864 54.4401 10.864C54.6535 10.864 54.8775 10.88 55.1121 10.912C55.3468 10.9333 55.5975 10.976 55.8641 11.04V10.72C55.8641 10.496 55.8375 10.2827 55.7841 10.08C55.7308 9.87733 55.6348 9.70133 55.4961 9.552C55.3681 9.392 55.1921 9.26933 54.9681 9.184C54.7548 9.09867 54.4828 9.056 54.1521 9.056C53.7041 9.056 53.2935 9.088 52.9201 9.152C52.5468 9.216 52.2428 9.29067 52.0081 9.376L51.7681 7.808C52.0135 7.72267 52.3708 7.63733 52.8401 7.552C53.3095 7.46667 53.8108 7.424 54.3441 7.424ZM69.979 3.584C70.427 3.584 70.8217 3.62667 71.163 3.712C71.5043 3.78667 71.7603 3.856 71.931 3.92L71.563 5.52C71.3817 5.43467 71.1683 5.36533 70.923 5.312C70.6883 5.25867 70.4323 5.232 70.155 5.232C69.8457 5.232 69.5843 5.28 69.371 5.376C69.1577 5.46133 68.987 5.584 68.859 5.744C68.731 5.904 68.6403 6.10133 68.587 6.336C68.5337 6.56 68.507 6.80533 68.507 7.072V7.632H71.547V9.248H68.507V16H66.571V7.04C66.571 5.96267 66.8537 5.12 67.419 4.512C67.9843 3.89333 68.8377 3.584 69.979 3.584ZM63.515 3.584C63.963 3.584 64.3577 3.62667 64.699 3.712C65.0403 3.78667 65.2963 3.856 65.467 3.92L65.099 5.52C64.9177 5.43467 64.7043 5.36533 64.459 5.312C64.2243 5.25867 63.9683 5.232 63.691 5.232C63.3817 5.232 63.1203 5.28 62.907 5.376C62.6937 5.46133 62.523 5.584 62.395 5.744C62.267 5.904 62.1763 6.10133 62.123 6.336C62.0697 6.56 62.043 6.80533 62.043 7.072V7.632H65.083V9.248H62.043V16H60.107V7.04C60.107 5.96267 60.3897 5.12 60.955 4.512C61.5203 3.89333 62.3737 3.584 63.515 3.584ZM75.7504 14.496C76.4757 14.496 77.0037 14.3733 77.3344 14.128C77.665 13.8827 77.8304 13.536 77.8304 13.088C77.8304 12.8213 77.7717 12.592 77.6544 12.4C77.5477 12.208 77.3877 12.0373 77.1744 11.888C76.9717 11.728 76.721 11.584 76.4224 11.456C76.1237 11.3173 75.7824 11.184 75.3984 11.056C75.0144 10.9173 74.641 10.768 74.2784 10.608C73.9264 10.4373 73.6117 10.2293 73.3344 9.984C73.0677 9.73867 72.849 9.44533 72.6784 9.104C72.5184 8.76267 72.4384 8.352 72.4384 7.872C72.4384 6.86933 72.785 6.08533 73.4784 5.52C74.1717 4.944 75.1157 4.656 76.3104 4.656C77.0037 4.656 77.617 4.736 78.1504 4.896C78.6944 5.04533 79.121 5.21067 79.4304 5.392L78.8064 7.024C78.4437 6.82133 78.0437 6.66667 77.6064 6.56C77.1797 6.45333 76.737 6.4 76.2784 6.4C75.7344 6.4 75.3077 6.512 74.9984 6.736C74.6997 6.96 74.5504 7.27467 74.5504 7.68C74.5504 7.92533 74.5984 8.13867 74.6944 8.32C74.801 8.49067 74.945 8.64533 75.1264 8.784C75.3184 8.92267 75.537 9.05067 75.7824 9.168C76.0384 9.28533 76.3157 9.39733 76.6144 9.504C77.137 9.696 77.601 9.89333 78.0064 10.096C78.4224 10.288 78.769 10.5227 79.0464 10.8C79.3344 11.0667 79.553 11.3867 79.7024 11.76C79.8517 12.1227 79.9264 12.5653 79.9264 13.088C79.9264 14.0907 79.569 14.8693 78.8544 15.424C78.1504 15.968 77.1157 16.24 75.7504 16.24C75.2917 16.24 74.8704 16.208 74.4864 16.144C74.113 16.0907 73.777 16.0213 73.4784 15.936C73.1904 15.8507 72.9397 15.7653 72.7264 15.68C72.513 15.584 72.3424 15.4987 72.2144 15.424L72.8064 13.776C73.0944 13.936 73.4837 14.096 73.9744 14.256C74.465 14.416 75.057 14.496 75.7504 14.496ZM88.439 7.632C87.575 10.8107 86.5723 13.6907 85.431 16.272C85.2177 16.752 84.999 17.1627 84.775 17.504C84.551 17.8453 84.3003 18.128 84.023 18.352C83.7457 18.576 83.4363 18.736 83.095 18.832C82.7537 18.9387 82.359 18.992 81.911 18.992C81.6123 18.992 81.3137 18.96 81.015 18.896C80.727 18.832 80.5083 18.7627 80.359 18.688L80.711 17.136C81.095 17.2853 81.4737 17.36 81.847 17.36C82.3483 17.36 82.7377 17.2373 83.015 16.992C83.303 16.7573 83.5537 16.3893 83.767 15.888C83.159 14.7147 82.5723 13.4347 82.007 12.048C81.4523 10.6613 80.9563 9.18933 80.519 7.632H82.583C82.6897 8.08 82.8177 8.56533 82.967 9.088C83.127 9.61067 83.2977 10.144 83.479 10.688C83.6603 11.2213 83.8523 11.7547 84.055 12.288C84.2577 12.8213 84.4603 13.3173 84.663 13.776C85.0043 12.8267 85.3243 11.8187 85.623 10.752C85.9217 9.67467 86.1937 8.63467 86.439 7.632H88.439ZM89.9039 7.904C90.2772 7.79733 90.7625 7.696 91.3599 7.6C91.9572 7.504 92.6185 7.456 93.3439 7.456C94.0265 7.456 94.5972 7.552 95.0559 7.744C95.5145 7.92533 95.8772 8.18667 96.1439 8.528C96.4212 8.85867 96.6132 9.264 96.7199 9.744C96.8372 10.2133 96.8959 10.7307 96.8959 11.296V16H94.9599V11.6C94.9599 11.152 94.9279 10.7733 94.8639 10.464C94.8105 10.144 94.7145 9.888 94.5759 9.696C94.4479 9.49333 94.2665 9.34933 94.0319 9.264C93.8079 9.168 93.5305 9.12 93.1999 9.12C92.9545 9.12 92.6985 9.136 92.4319 9.168C92.1652 9.2 91.9679 9.22667 91.8399 9.248V16H89.9039V7.904ZM98.7993 11.824C98.7993 11.2053 98.8953 10.6293 99.0872 10.096C99.2793 9.552 99.5513 9.08267 99.9033 8.688C100.266 8.29333 100.703 7.984 101.215 7.76C101.727 7.536 102.303 7.424 102.943 7.424C103.733 7.424 104.479 7.568 105.183 7.856L104.767 9.44C104.543 9.344 104.287 9.264 103.999 9.2C103.722 9.136 103.423 9.104 103.103 9.104C102.346 9.104 101.77 9.344 101.375 9.824C100.981 10.2933 100.783 10.96 100.783 11.824C100.783 12.656 100.97 13.3173 101.343 13.808C101.717 14.288 102.346 14.528 103.231 14.528C103.562 14.528 103.887 14.496 104.207 14.432C104.527 14.368 104.805 14.288 105.039 14.192L105.311 15.792C105.098 15.8987 104.773 15.9947 104.335 16.08C103.909 16.1653 103.466 16.208 103.007 16.208C102.293 16.208 101.669 16.1013 101.135 15.888C100.613 15.664 100.175 15.36 99.8233 14.976C99.4819 14.5813 99.2259 14.1173 99.0553 13.584C98.8846 13.04 98.7993 12.4533 98.7993 11.824Z" fill="white"/>
</svg>
