<svg width="32" height="32" viewBox="0 0 32 32" fill="none" xmlns="http://www.w3.org/2000/svg">
<path d="M12.3943 11.7502C13.2511 10.7132 14.5482 10.0502 16 10.0502C17.4518 10.0502 18.7489 10.7132 19.6057 11.7502C20.1698 12.4341 20.5278 13.2644 20.6379 14.144C20.7481 15.0237 20.6058 15.9166 20.2278 16.7185C19.8497 17.5204 19.2514 18.1982 18.5027 18.673C17.754 19.1477 16.8857 19.3998 15.9992 19.3998C15.1126 19.3998 14.2443 19.1477 13.4956 18.673C12.7469 18.1982 12.1486 17.5204 11.7706 16.7185C11.3925 15.9166 11.2502 15.0237 11.3604 14.144C11.4705 13.2644 11.8285 12.4341 12.3926 11.7502H12.3943ZM22.375 14.7252C22.375 13.6508 22.1098 12.6376 21.6406 11.7502H28.75C29.4263 11.7502 30.0749 12.0189 30.5531 12.4971C31.0314 12.9753 31.3 13.6239 31.3 14.3002V15.1502C31.3 17.8481 29.2498 20.6106 25.6645 21.583C25.2961 20.9212 24.7574 20.3698 24.1044 19.986C23.4513 19.6023 22.7075 19.4 21.95 19.4002H20.335C20.9794 18.804 21.4933 18.0808 21.8444 17.2762C22.1955 16.4716 22.3761 15.6031 22.375 14.7252ZM21.95 21.1002C22.2851 21.0993 22.6171 21.1646 22.9269 21.2925C23.2367 21.4203 23.5182 21.6081 23.7551 21.8451C23.9921 22.082 24.1799 22.3635 24.3077 22.6733C24.4356 22.9831 24.5009 23.3151 24.5 23.6502V24.5002C24.5 27.8509 21.338 31.3002 16 31.3002C10.662 31.3002 7.50001 27.8509 7.50001 24.5002V23.6502C7.49912 23.3151 7.56446 22.9831 7.69229 22.6733C7.82012 22.3635 8.00792 22.082 8.24489 21.8451C8.48186 21.6081 8.76332 21.4203 9.07311 21.2925C9.38289 21.1646 9.71489 21.0993 10.05 21.1002H21.95ZM0.700012 15.1502C0.700012 17.8481 2.75021 20.6106 6.33551 21.583C6.70396 20.9212 7.24259 20.3698 7.89567 19.986C8.54874 19.6023 9.29252 19.4 10.05 19.4002H11.665C11.0207 18.804 10.5067 18.0808 10.1556 17.2762C9.80455 16.4716 9.62388 15.6031 9.62501 14.7252C9.62501 13.6508 9.89021 12.6376 10.3611 11.7502H3.25001C2.57371 11.7502 1.92511 12.0189 1.44689 12.4971C0.968672 12.9753 0.700012 13.6239 0.700012 14.3002V15.1502ZM13.875 5.3752C13.875 4.13531 13.3825 2.9462 12.5057 2.06947C11.629 1.19274 10.4399 0.700195 9.20001 0.700195C7.96013 0.700195 6.77102 1.19274 5.89429 2.06947C5.01756 2.9462 4.52501 4.13531 4.52501 5.3752C4.52501 6.61508 5.01756 7.80419 5.89429 8.68092C6.77102 9.55765 7.96013 10.0502 9.20001 10.0502C10.4399 10.0502 11.629 9.55765 12.5057 8.68092C13.3825 7.80419 13.875 6.61508 13.875 5.3752ZM27.475 5.3752C27.475 4.13531 26.9825 2.9462 26.1057 2.06947C25.229 1.19274 24.0399 0.700195 22.8 0.700195C21.5601 0.700195 20.371 1.19274 19.4943 2.06947C18.6176 2.9462 18.125 4.13531 18.125 5.3752C18.125 6.61508 18.6176 7.80419 19.4943 8.68092C20.371 9.55765 21.5601 10.0502 22.8 10.0502C24.0399 10.0502 25.229 9.55765 26.1057 8.68092C26.9825 7.80419 27.475 6.61508 27.475 5.3752Z" fill="white"/>
</svg>
