<svg width="34" height="34" viewBox="0 0 34 34" fill="none" xmlns="http://www.w3.org/2000/svg">
<path d="M13.3943 12.75C14.2511 11.713 15.5482 11.05 17 11.05C18.4518 11.05 19.7489 11.713 20.6057 12.75C21.1698 13.4339 21.5278 14.2641 21.6379 15.1438C21.7481 16.0235 21.6058 16.9163 21.2277 17.7182C20.8497 18.5201 20.2514 19.198 19.5027 19.6727C18.754 20.1475 17.8857 20.3996 16.9992 20.3996C16.1126 20.3996 15.2443 20.1475 14.4956 19.6727C13.7469 19.198 13.1486 18.5201 12.7706 17.7182C12.3925 16.9163 12.2502 16.0235 12.3604 15.1438C12.4705 14.2641 12.8285 13.4339 13.3926 12.75H13.3943ZM23.375 15.725C23.375 14.6506 23.1098 13.6374 22.6406 12.75H29.75C30.4263 12.75 31.0749 13.0186 31.5531 13.4968C32.0313 13.975 32.3 14.6236 32.3 15.3V16.15C32.3 18.8479 30.2498 21.6104 26.6645 22.5828C26.2961 21.9209 25.7574 21.3696 25.1043 20.9858C24.4513 20.602 23.7075 20.3998 22.95 20.4H21.335C21.9794 19.8038 22.4933 19.0806 22.8444 18.276C23.1955 17.4714 23.3761 16.6028 23.375 15.725ZM22.95 22.1C23.2851 22.0991 23.6171 22.1644 23.9269 22.2922C24.2367 22.4201 24.5182 22.6079 24.7551 22.8448C24.9921 23.0818 25.1799 23.3633 25.3077 23.673C25.4356 23.9828 25.5009 24.3148 25.5 24.65V25.5C25.5 28.8507 22.338 32.3 17 32.3C11.662 32.3 8.5 28.8507 8.5 25.5V24.65C8.4991 24.3148 8.56445 23.9828 8.69228 23.673C8.82011 23.3633 9.00791 23.0818 9.24488 22.8448C9.48185 22.6079 9.76331 22.4201 10.0731 22.2922C10.3829 22.1644 10.7149 22.0991 11.05 22.1H22.95ZM1.7 16.15C1.7 18.8479 3.7502 21.6104 7.3355 22.5828C7.70394 21.9209 8.24258 21.3696 8.89566 20.9858C9.54873 20.602 10.2925 20.3998 11.05 20.4H12.665C12.0206 19.8038 11.5067 19.0806 11.1556 18.276C10.8045 17.4714 10.6239 16.6028 10.625 15.725C10.625 14.6506 10.8902 13.6374 11.3611 12.75H4.25C3.5737 12.75 2.9251 13.0186 2.44688 13.4968C1.96866 13.975 1.7 14.6236 1.7 15.3V16.15ZM14.875 6.37495C14.875 5.13506 14.3825 3.94596 13.5057 3.06923C12.629 2.19249 11.4399 1.69995 10.2 1.69995C8.96011 1.69995 7.77101 2.19249 6.89428 3.06923C6.01754 3.94596 5.525 5.13506 5.525 6.37495C5.525 7.61484 6.01754 8.80394 6.89428 9.68068C7.77101 10.5574 8.96011 11.05 10.2 11.05C11.4399 11.05 12.629 10.5574 13.5057 9.68068C14.3825 8.80394 14.875 7.61484 14.875 6.37495ZM28.475 6.37495C28.475 5.13506 27.9825 3.94596 27.1057 3.06923C26.229 2.19249 25.0399 1.69995 23.8 1.69995C22.5601 1.69995 21.371 2.19249 20.4943 3.06923C19.6175 3.94596 19.125 5.13506 19.125 6.37495C19.125 7.61484 19.6175 8.80394 20.4943 9.68068C21.371 10.5574 22.5601 11.05 23.8 11.05C25.0399 11.05 26.229 10.5574 27.1057 9.68068C27.9825 8.80394 28.475 7.61484 28.475 6.37495Z" fill="#1B3884"/>
</svg>
